<svg width="16" height="11" viewBox="0 0 16 11" fill="none" xmlns="http://www.w3.org/2000/svg">
<path d="M12.6667 2.83329L10.0001 5.49996H12.0001C12.0001 7.70663 10.2067 9.49996 8.00008 9.49996C7.32675 9.49996 6.68675 9.33329 6.13341 9.03329L5.16008 10.0066C5.98008 10.5266 6.95341 10.8333 8.00008 10.8333C10.9467 10.8333 13.3334 8.44663 13.3334 5.49996H15.3334L12.6667 2.83329ZM4.00008 5.49996C4.00008 3.29329 5.79341 1.49996 8.00008 1.49996C8.67341 1.49996 9.31341 1.66663 9.86675 1.96663L10.8401 0.993292C10.0201 0.473292 9.04675 0.166626 8.00008 0.166626C5.05341 0.166626 2.66675 2.55329 2.66675 5.49996H0.666748L3.33341 8.16663L6.00008 5.49996H4.00008Z" fill="#C0C0C0"/>
</svg>
