<svg width="12" height="14" viewBox="0 0 12 14" fill="none" xmlns="http://www.w3.org/2000/svg">
<path d="M4 6.16663H2.66667V7.49996H4V6.16663ZM6.66667 6.16663H5.33333V7.49996H6.66667V6.16663ZM9.33333 6.16663H8V7.49996H9.33333V6.16663ZM10.6667 1.49996H10V0.166626H8.66667V1.49996H3.33333V0.166626H2V1.49996H1.33333C0.979711 1.49996 0.640573 1.64043 0.390524 1.89048C0.140476 2.14053 0 2.47967 0 2.83329V12.1666C0 12.5202 0.140476 12.8594 0.390524 13.1094C0.640573 13.3595 0.979711 13.5 1.33333 13.5H10.6667C11.0203 13.5 11.3594 13.3595 11.6095 13.1094C11.8595 12.8594 12 12.5202 12 12.1666V2.83329C12 2.47967 11.8595 2.14053 11.6095 1.89048C11.3594 1.64043 11.0203 1.49996 10.6667 1.49996ZM10.6667 12.1666H1.33333V4.83329H10.6667V12.1666Z" fill="#C0C0C0"/>
</svg>
